<svg xmlns="http://www.w3.org/2000/svg" fill="none" viewBox="0 0 112 48"><path fill="#2fc5e1" d="M77.165 4.38V6.8h6.253V.562h-2.425a3.823 3.823 0 0 0-3.828 3.818ZM24.783 19.626H14.46v6.23h10.323v-6.23ZM34.884 16.69h12.325v12.297H34.885V16.691Zm13.682-6.23h-15.04c-2.688 0-4.885 2.194-4.885 4.875v15.01c0 2.679 2.197 4.873 4.885 4.873h13.682v6.553H34.884V38.33l-6.243.001v4.797c0 2.68 2.197 4.873 4.885 4.873h15.04c2.687 0 4.886-2.192 4.886-4.873V15.335c0-2.68-2.199-4.875-4.886-4.875Zm57.19 18.527H93.432V16.691h12.324v12.296ZM109.737 0a3.977 3.977 0 0 0-3.981 3.973v6.487H92.073a4.9 4.9 0 0 0-4.665 3.43 4.84 4.84 0 0 0-.22 1.445v15.008c0 .838.215 1.63.592 2.318a4.925 4.925 0 0 0 2.396 2.171 4.848 4.848 0 0 0 1.897.386h15.041c.673 0 1.314-.138 1.898-.386a4.927 4.927 0 0 0 2.396-2.17 4.82 4.82 0 0 0 .592-2.32V0h-2.263ZM56.796 15.335v19.883h6.243V16.69h10.592v-6.23h-11.95c-2.687 0-4.885 2.194-4.885 4.874Zm26.647-4.873h-6.244v24.756h6.244V10.462ZM6.186 3.33H4.732A4.728 4.728 0 0 0 0 8.052V9.56h4.77v25.658h6.273V3.325l-4.857.005Z"/></svg>